# xmcd
#
# Track frame offsets:
#	150
#	35345
#	54713
#	66272
#	81885
#	94930
#	104170
#	117095
#	126505
#
# Disc length: 1836 seconds
#
# Revision: 1
# Processed by: cddbd v1.5.2PL0 Copyright (c) Steve Scherf et al.
# Submitted via: audiograbber 1.83.01
#
DISCID=82072a09
DTITLE=Statler Brothers - Maple Street Memories
DYEAR=1900
DGENRE=
TTITLE0=Our Street/Tell Me Why
TTITLE1=Maple Street Mem'ries
TTITLE2=Deja Vue
TTITLE3=Am I Crazy
TTITLE4=The Best I Know How
TTITLE5=I'll Be The One
TTITLE6=Beyond Romance
TTITLE7=I Lost My heart To You
TTITLE8=Jesus Showed Me So
EXTD=
EXTT0=
EXTT1=
EXTT2=
EXTT3=
EXTT4=
EXTT5=
EXTT6=
EXTT7=
EXTT8=
PLAYORDER=
